<?xml version="1.0" standalone="no"?>
<!DOCTYPE svg PUBLIC "-//W3C//DTD SVG 20010904//EN"
 "http://www.w3.org/TR/2001/REC-SVG-20010904/DTD/svg10.dtd">
<svg version="1.0" xmlns="http://www.w3.org/2000/svg"
 width="530.000000pt" height="530.000000pt" viewBox="0 0 530.000000 530.000000"
 preserveAspectRatio="xMidYMid meet">
<metadata>
Created by potrace 1.14, written by Peter Selinger 2001-2017
</metadata>
<g transform="translate(0.000000,530.000000) scale(0.100000,-0.100000)"
fill="#000000" stroke="none">
<path d="M2606 5203 c-3 -4 -46 -8 -94 -10 -48 -2 -103 -5 -122 -8 -19 -2 -66
-7 -105 -11 -38 -3 -77 -8 -85 -11 -17 -6 -49 -12 -100 -18 -19 -2 -35 -4 -35
-5 0 -1 -8 -3 -18 -5 -10 -2 -51 -14 -90 -26 -40 -13 -78 -23 -84 -22 -7 0
-13 -3 -13 -8 0 -5 -7 -9 -15 -9 -18 0 -113 -31 -170 -56 -22 -10 -43 -17 -47
-16 -5 1 -8 -2 -8 -6 0 -8 -71 -37 -79 -33 -2 2 -7 -1 -10 -6 -3 -4 -26 -19
-51 -31 -60 -31 -135 -74 -157 -89 -10 -7 -56 -38 -103 -69 -47 -32 -89 -63
-95 -70 -5 -7 -16 -14 -24 -16 -8 -2 -28 -18 -44 -35 -16 -18 -33 -33 -37 -33
-5 0 -29 -19 -53 -42 -24 -24 -59 -57 -78 -74 -19 -16 -70 -70 -114 -119 -44
-48 -89 -96 -99 -106 -11 -11 -16 -19 -12 -19 5 0 -2 -9 -15 -20 -13 -10 -20
-19 -16 -20 4 0 -10 -18 -31 -40 -22 -21 -37 -42 -33 -45 3 -4 -2 -11 -12 -16
-9 -6 -15 -14 -12 -19 3 -4 -2 -10 -10 -14 -8 -3 -15 -12 -15 -21 0 -8 -4 -15
-8 -15 -11 0 -82 -119 -82 -137 0 -7 -6 -16 -14 -19 -8 -3 -17 -16 -20 -30 -4
-13 -11 -24 -16 -24 -6 0 -10 -9 -10 -19 0 -11 -5 -23 -10 -26 -6 -4 -8 -10
-5 -15 3 -4 -1 -10 -8 -13 -6 -2 -18 -25 -26 -51 -7 -25 -17 -46 -22 -46 -5 0
-8 -3 -7 -7 3 -15 -14 -63 -23 -63 -5 0 -9 -11 -9 -24 0 -14 -4 -27 -9 -30 -5
-3 -12 -23 -16 -43 -4 -21 -10 -42 -14 -48 -11 -13 -53 -174 -54 -202 -1 -13
-4 -23 -7 -23 -3 0 -6 -10 -7 -22 0 -13 -6 -48 -12 -78 -23 -121 -29 -186 -32
-327 -1 -69 -5 -103 -13 -103 -7 0 -7 -3 -1 -8 6 -4 11 -54 12 -112 2 -94 11
-295 14 -295 0 0 9 -47 20 -105 11 -58 22 -118 26 -135 3 -16 6 -38 6 -47 1
-10 5 -18 9 -18 4 0 8 -10 8 -22 0 -13 6 -34 13 -49 8 -14 13 -33 11 -42 -1
-9 2 -17 8 -17 6 0 8 -7 4 -15 -3 -8 -1 -15 4 -15 6 0 9 -3 8 -8 -3 -11 33
-114 50 -140 8 -12 12 -22 8 -22 -6 0 113 -242 124 -250 6 -5 22 -42 20 -48 0
-1 5 -9 12 -17 31 -34 36 -43 31 -49 -4 -3 -2 -6 4 -6 5 0 18 -18 29 -40 10
-22 24 -40 29 -40 6 0 23 -22 39 -50 16 -27 47 -68 68 -91 21 -23 38 -43 38
-46 0 -11 224 -238 291 -296 24 -20 55 -47 69 -58 14 -11 39 -33 57 -49 17
-16 34 -26 37 -23 3 4 6 1 6 -5 0 -6 9 -14 20 -17 11 -4 17 -11 14 -17 -5 -7
-1 -9 9 -5 10 3 17 3 17 -2 0 -12 120 -91 214 -140 25 -14 46 -29 46 -33 0 -5
5 -6 10 -3 6 3 10 1 10 -6 0 -7 3 -10 6 -7 3 4 33 -8 67 -25 34 -17 68 -30 75
-29 6 2 12 -1 12 -6 0 -8 94 -48 135 -58 6 -2 42 -14 80 -28 39 -14 78 -26 88
-26 9 0 17 -3 17 -7 0 -5 11 -9 25 -10 14 -1 36 -4 50 -5 14 -1 25 -6 25 -11
0 -4 8 -7 18 -6 9 2 31 0 47 -5 34 -9 135 -22 240 -32 85 -8 507 -8 590 0 52
5 170 23 270 43 17 3 36 6 43 6 6 0 12 4 12 9 0 4 3 7 8 6 13 -5 162 36 162
44 0 4 6 5 14 2 8 -3 17 0 21 5 3 6 11 9 16 6 5 -4 9 -1 9 5 0 6 6 10 13 9 12
-2 32 4 72 22 11 4 27 10 35 11 8 2 17 6 20 9 8 9 133 64 138 61 3 -2 8 1 11
6 3 5 26 20 51 32 25 12 47 25 50 29 3 3 25 17 50 30 41 22 77 46 149 99 13 9
26 16 28 14 2 -1 13 7 26 19 12 12 46 39 75 61 28 22 52 44 52 49 0 5 5 9 12
9 6 0 24 14 40 32 15 17 28 29 28 25 0 -12 227 223 280 290 8 10 33 41 54 68
22 28 46 56 55 63 8 6 11 12 7 12 -4 0 13 28 37 63 47 66 86 130 115 187 9 19
19 37 22 40 3 3 14 25 25 50 11 25 22 47 25 50 7 7 50 108 63 150 6 19 15 38
20 41 5 3 8 9 8 13 -1 3 -1 7 0 9 0 1 2 9 4 17 2 8 16 53 30 100 15 47 28 96
30 110 2 14 4 25 5 25 2 0 7 22 15 70 4 22 9 43 11 47 2 3 7 33 10 65 6 58 11
94 14 103 1 3 2 21 2 40 0 19 5 38 11 42 9 6 9 8 0 8 -8 0 -9 9 -5 28 9 31 6
361 -3 467 -9 108 -23 222 -29 242 -3 10 -8 34 -11 53 -8 49 -11 63 -19 82 -4
9 -5 22 -1 28 3 5 1 10 -4 10 -6 0 -11 8 -11 18 0 17 -31 124 -47 162 -4 8 -8
22 -9 30 -1 8 -12 38 -24 65 -13 28 -24 55 -25 60 -4 18 -75 159 -85 169 -6 6
-10 18 -10 28 0 10 -4 18 -8 18 -5 0 -14 16 -22 35 -8 19 -18 35 -22 35 -5 0
-7 4 -4 9 3 5 -1 11 -9 15 -8 3 -15 12 -15 20 0 8 -11 27 -25 42 -14 15 -23
29 -21 31 4 4 -13 29 -41 58 -7 8 -13 21 -13 30 0 9 -4 13 -10 10 -5 -3 -10
-2 -10 3 0 4 -16 27 -35 49 -19 22 -32 43 -29 46 3 3 -4 8 -15 12 -12 3 -21
11 -21 16 0 5 -8 17 -17 27 -10 10 -28 29 -40 43 -12 13 -27 29 -34 35 -6 7
-25 26 -41 43 -16 17 -34 31 -40 31 -6 0 -8 3 -5 6 3 4 -8 20 -26 36 -18 16
-57 54 -88 84 -31 30 -60 54 -63 54 -4 0 -19 12 -34 28 -16 15 -33 28 -39 29
-6 1 -26 16 -44 32 -18 17 -45 35 -61 42 -15 6 -26 14 -23 18 2 4 -11 13 -29
19 -18 7 -41 21 -51 32 -10 11 -22 20 -27 20 -5 0 -26 11 -47 24 -21 14 -42
22 -45 19 -3 -4 -6 -2 -6 4 0 9 -53 39 -56 31 -1 -1 -11 5 -22 15 -12 11 -25
16 -30 13 -6 -3 -12 0 -15 7 -2 6 -31 21 -63 32 -33 10 -61 22 -64 26 -3 4
-14 9 -25 11 -11 1 -22 6 -25 9 -6 6 -141 49 -157 49 -6 0 -23 6 -38 14 -15 8
-51 18 -79 21 -28 4 -55 10 -60 13 -5 3 -23 6 -40 8 -17 1 -42 5 -56 9 -14 4
-43 9 -65 11 -22 2 -80 8 -130 14 -49 6 -140 12 -202 14 -62 3 -116 7 -121 10
-5 3 -12 3 -16 -1z"/>
</g>
</svg>
